# xmcd CD database file
#
# Track frame offsets:
#	150
#	13955
#	27893
#	42294
#	56362
#
# Disc length: 974 seconds
#
# Revision: 3
# Processed by: cddbd v1.5.2PL0 Copyright (c) Steve Scherf et al.
# Submitted via: CDex 1.70beta2
#
DISCID=3703cc05
DTITLE=Dieter Dornig - Mein Freund der Wind - Countrysongs
DYEAR=2006
DGENRE=Country
TTITLE0=Mein Freund der Wind
TTITLE1=Das Leben ist kein leichtes Spiel
TTITLE2=Rosmary
TTITLE3=Mutter, ich hab dir solange nicht geschrieben
TTITLE4=Es war ein Sommer in Athen
EXTD=YEAR: 2006
EXTT0=
EXTT1=
EXTT2=
EXTT3=
EXTT4=
PLAYORDER=
